<svg t="1707560406393" class="icon" viewBox="0 0 1024 1024" version="1.1" xmlns="http://www.w3.org/2000/svg" p-id="53434" width="128" height="128"><path d="M287.446699 0h456.362666c60.416 0 112.093867 43.2128 122.811734 102.673067a87.2448 87.2448 0 0 1-85.8112 102.673066H250.514432a87.2448 87.2448 0 0 1-85.8112-102.673066A124.7232 124.7232 0 0 1 287.446699 0z" fill="#798BA7" opacity=".2" p-id="53435"></path><path d="M211.602432 96.392533h608.119467a136.533333 136.533333 0 0 1 136.328533 129.4336l33.9968 654.5408A136.533333 136.533333 0 0 1 853.718699 1024H177.605632a136.533333 136.533333 0 0 1-136.3968-143.633067l33.9968-654.5408a136.533333 136.533333 0 0 1 136.3968-129.4336z m464.6912 256.955734v1.501866a160.631467 160.631467 0 0 1-321.262933 0v-1.501866a48.196267 48.196267 0 1 0-96.392534 1.501866 257.024 257.024 0 1 0 514.048-1.501866 48.196267 48.196267 0 1 0-96.392533 0z" fill="#798BA7" p-id="53436"></path></svg>