<svg t="1707560695111" class="icon" viewBox="0 0 1024 1024" version="1.1" xmlns="http://www.w3.org/2000/svg" p-id="86290" width="128" height="128"><path d="M85.333333 85.333333m128 0l597.333334 0q128 0 128 128l0 597.333334q0 128-128 128l-597.333334 0q-128 0-128-128l0-597.333334q0-128 128-128Z" fill="#1890FF" p-id="86291"></path><path d="M85.333333 213.333333a128 128 0 0 1 128-128h597.333334a128 128 0 0 1 128 128v128H85.333333V213.333333z" fill="#99CEFF" p-id="86292"></path><path d="M213.333333 213.333333m-42.666666 0a42.666667 42.666667 0 1 0 85.333333 0 42.666667 42.666667 0 1 0-85.333333 0Z" fill="#1890FF" p-id="86293"></path><path d="M341.333333 213.333333m-42.666666 0a42.666667 42.666667 0 1 0 85.333333 0 42.666667 42.666667 0 1 0-85.333333 0Z" fill="#1890FF" p-id="86294"></path><path d="M469.333333 213.333333m-42.666666 0a42.666667 42.666667 0 1 0 85.333333 0 42.666667 42.666667 0 1 0-85.333333 0Z" fill="#1890FF" p-id="86295"></path></svg>