<svg t="1707560322441" class="icon" viewBox="0 0 1024 1024" version="1.1" xmlns="http://www.w3.org/2000/svg" p-id="43569" width="128" height="128"><path d="M902.631527 824.780328L589.563141 1003.457133a156.698023 156.698023 0 0 1-155.126282 0L121.368473 824.780328c-48.892937-27.902252-78.84306-79.611012-78.84306-135.927485V335.083007c0-56.316472 30.206108-108.025232 78.84306-135.927484L434.436859 20.478717c48.124985-27.390284 107.001296-27.390284 155.126282 0l313.068386 178.420822c48.892937 27.902252 78.84306 79.611012 78.84306 135.927484V688.596859c0 56.572456-30.206108 108.281216-78.84306 136.183469z" fill="#0095FF" p-id="43570"></path><path d="M543.997995 546.013792v240.624925c0 17.150925-13.823134 30.974059-30.974059 30.97406-8.191487 0.255984-16.382974-3.071808-22.270605-8.959439-5.887631-5.887631-8.959439-13.823134-8.959439-22.270605v-240.624925l-217.586368-125.432141c-10.751326-6.399599-16.894942-18.430845-15.103054-30.97406 1.535904-12.28723 10.495342-22.526589 22.782573-25.85438 7.935503-2.047872 16.382974-0.767952 23.550525 3.327791l217.586368 124.408206 215.79448-124.408206c7.167551-4.351727 15.615022-5.375663 23.550525-3.327791 7.935503 2.047872 14.84707 7.423535 18.686829 14.591086 8.447471 14.84707 3.583775 33.533899-11.263294 42.237354l-215.794481 124.408205v1.27992z" fill="#FFFFFF" p-id="43571"></path><path d="M512.255984 829.132055c-11.263294 0-21.758637-4.351727-29.438156-12.28723-7.935503-7.935503-12.543214-18.942813-12.28723-30.462092v-233.969342L258.575877 430.309041c-14.84707-8.703455-23.038557-25.342412-20.734701-42.237354 2.303856-17.150925 14.591086-30.974059 30.97406-35.325787 11.00731-2.815824 22.782573-1.27992 32.253979 4.607712l211.698737 121.080414 210.162833-121.080414c9.215423-5.631647 21.246669-7.423535 31.997996-4.607712 11.00731 2.815824 20.222733 10.239359 25.85438 19.96675 11.519278 19.966749 4.607711 45.821129-15.359038 57.596391l-209.906849 121.080414v235.249262c0 23.294541-18.942813 42.493338-42.493338 42.493338l-0.511968-11.263294 0.511968-11.263295c11.00731 0 19.966749-8.959439 19.966749-19.710765v-240.624925h12.031246l-0.511968-0.511968-11.775262 0.767952v-6.655583l5.631647-4.607711 215.794481-124.408206c9.215423-5.375663 12.28723-17.406909 6.911567-26.622332-2.55984-4.607711-6.911567-7.935503-11.775263-9.215423-4.863695-1.27992-10.239359-0.511968-14.591086 2.047872l-221.682111 127.735997-223.218016-127.480013c-4.607711-2.815824-9.983375-3.583775-14.847069-2.303856-7.679519 2.047872-13.311166 8.447471-14.335102 16.382974-1.023936 7.935503 2.815824 15.615022 9.72739 19.710765l223.218016 128.759933v247.280508c0 5.375663 2.047872 10.495342 5.631647 14.079118 3.583775 3.583775 8.447471 5.631647 13.56715 5.631647v22.270605z" fill="#FFFFFF" p-id="43572"></path></svg>