<svg viewBox="0 0 1024 1024" version="1.1" xmlns="http://www.w3.org/2000/svg" p-id="40849" width="128" height="128"><path d="M513.024 567.296c-4.096 0-8.192-1.024-11.776-3.072l-212.48-122.88c-7.168-4.096-11.776-11.776-11.776-20.48V176.128c0-8.192 4.608-16.384 11.776-20.48L501.248 33.28c7.168-4.096 16.384-4.096 23.552 0L737.28 155.648c7.168 4.096 11.776 11.776 11.776 20.48v245.248c0 8.192-4.608 16.384-11.776 20.48l-212.48 122.368c-3.584 2.048-7.68 3.072-11.776 3.072zM324.096 407.552l188.928 109.056L701.44 407.552V189.952l-188.928-109.056-188.416 109.056v217.6z m0 0" fill="#0096FF" p-id="40850"></path><path d="M421.376 435.712l140.288 80.896L701.44 435.712V273.92l-139.776-80.896-140.288 80.896z" fill="#0096FF" opacity=".3" p-id="40851"></path><path d="M648.704 191.488l-130.048-74.752c-3.584-2.048-8.192-2.048-11.776 0L375.808 193.024c-3.584 2.048-5.632 6.144-5.632 10.24s2.048 8.192 6.144 10.24L505.856 286.72c1.536 1.024 3.584 1.536 5.632 1.536 2.048 0 4.096-0.512 5.632-1.536l131.072-74.752c3.584-2.048 6.144-6.144 6.144-10.24s-2.048-8.192-5.632-10.24z m-137.216 71.68L405.504 203.264l107.52-62.464 105.984 61.44-107.52 60.928zM485.376 582.656l-212.48-122.88c-7.168-4.096-16.384-4.096-23.552 0l-211.968 122.88c-7.168 4.096-11.776 11.776-11.776 20.48v245.248c0 8.192 4.608 16.384 11.776 20.48l212.48 122.368c3.584 2.048 7.68 3.072 11.776 3.072 4.096 0 8.192-1.024 11.776-3.072l212.48-122.368c7.168-4.096 11.776-11.776 11.776-20.48v-245.248c-0.512-8.704-5.12-16.384-12.288-20.48z m-35.328 251.392L261.12 943.104l-188.928-109.056v-218.112L261.12 507.392l188.928 109.056v217.6z" fill="#0096FF" p-id="40852"></path><path d="M450.048 865.792l-134.144 77.312-134.656-77.312v-155.136l134.656-77.824 134.144 77.824z" fill="#0096FF" opacity=".3" p-id="40853"></path><path d="M260.096 715.264c-2.048 0-4.096-0.512-5.632-1.536L124.416 640c-3.584-2.048-6.144-6.144-6.144-10.24s2.048-8.192 5.632-10.24l131.072-76.288c3.584-2.048 8.192-2.048 11.776 0l130.048 74.752c3.584 2.048 6.144 6.144 5.632 10.24 0 4.096-2.048 8.192-6.144 10.24l-131.072 74.752c-1.024 1.024-3.072 2.048-5.12 2.048zM153.6 629.76l105.984 59.904 107.52-61.44-105.984-61.44L153.6 629.76z m609.792 85.504c-2.048 0-4.096-0.512-5.632-1.536L627.712 640c-3.584-2.048-6.144-6.144-6.144-10.24s2.048-8.192 5.632-10.24l131.072-76.288c3.584-2.048 8.192-2.048 11.776 0l130.048 74.752c3.584 2.048 6.144 6.144 5.632 10.24 0 4.096-2.048 8.192-6.144 10.24l-131.072 74.752c-1.024 1.024-3.072 2.048-5.12 2.048zM657.408 629.76l105.984 59.904 107.52-61.44-105.984-61.44-107.52 62.976z m0 0" fill="#0096FF" p-id="40854"></path><path d="M986.624 582.656l-212.48-122.368c-7.168-4.096-16.384-4.096-23.552 0l-212.48 122.368c-7.168 4.096-11.776 11.776-11.776 20.48v245.248c0 8.192 4.608 16.384 11.776 20.48l212.48 122.368c3.584 2.048 7.68 3.072 11.776 3.072 4.096 0 8.192-1.024 11.776-3.072l212.48-122.368c7.168-4.096 11.776-11.776 11.776-20.48v-245.248c0-8.704-4.608-16.384-11.776-20.48z m-35.328 251.392L762.88 943.104l-188.928-109.056v-218.112L762.88 507.392l188.928 109.056v217.6z" fill="#0096FF" p-id="40855"></path><path d="M678.4 864.256l136.704 78.848 136.192-78.848v-157.184l-136.192-78.848-136.704 78.848z" fill="#0096FF" opacity=".3" p-id="40856"></path></svg>